<svg xmlns="http://www.w3.org/2000/svg" xmlns:xlink="http://www.w3.org/1999/xlink" width="48" height="48" viewBox="0 0 48 48">
  <defs>
    <clipPath id="clip-icon_48px">
      <rect width="48" height="48"/>
    </clipPath>
  </defs>
  <g id="icon_48px" clip-path="url(#clip-icon_48px)">
    <g id="Group_255" data-name="Group 255" transform="translate(-20)">
      <g id="instagram" transform="translate(6.57 6.539)">
        <g id="visibility-24px" transform="translate(-7.57 -7.539)">
          <g id="Group_245" data-name="Group 245">
            <rect id="Rectangle_215" data-name="Rectangle 215" width="24" height="24" fill="none"/>
          </g>
        </g>
      </g>
    </g>
    <g id="Group_258" data-name="Group 258">
      <g id="Group_257" data-name="Group 257" transform="translate(-1 -1)">
        <g id="Group_253" data-name="Group 253">
          <g id="instagram-2" data-name="instagram">
            <g id="visibility-24px-2" data-name="visibility-24px">
              <g id="Group_245-2" data-name="Group 245">
                <rect id="Rectangle_215-2" data-name="Rectangle 215" width="40" height="40" fill="none"/>
              </g>
            </g>
          </g>
        </g>
        <g id="Group_254" data-name="Group 254" transform="translate(1 1)">
          <g id="Group_259" data-name="Group 259">
            <rect id="Rectangle_217" data-name="Rectangle 217" width="48" height="48"/>
            <g id="Group_254-2" data-name="Group 254" transform="translate(5.121 14.629)">
              <path id="Path_63" data-name="Path 63" d="M13.367,3.14c-4.192,0-8.172-.366-9.692,3.462-.628,1.581-.537,3.634-.537,6.575,0,2.58-.084,5,.537,6.573,1.517,3.83,5.529,3.463,9.69,3.463,4.014,0,8.152.41,9.691-3.463.629-1.6.537-3.62.537-6.573,0-3.921.22-6.452-1.718-8.353C19.912,2.9,17.258,3.14,13.362,3.14ZM12.45,4.949c8.743-.014,9.856-.967,9.242,12.281-.218,4.685-3.854,4.171-8.324,4.171-8.15,0-8.384-.229-8.384-8.228,0-8.092.646-8.219,7.467-8.226Zm6.377,1.666a1.2,1.2,0,1,0,1.227,1.2A1.216,1.216,0,0,0,18.827,6.615Zm-5.46,1.408a5.155,5.155,0,1,0,5.251,5.154A5.2,5.2,0,0,0,13.367,8.023Zm0,1.809c4.508,0,4.514,6.691,0,6.691S8.853,9.831,13.367,9.831Z" transform="translate(15.746 -3.13)" fill="#fff"/>
              <path id="Path_64" data-name="Path 64" d="M8,7.357V23.268a1.533,1.533,0,0,0,2.365,1.29l12.5-7.956a1.536,1.536,0,0,0,0-2.6l-12.5-7.94A1.533,1.533,0,0,0,8,7.357Z" transform="translate(-8 -5.578)" fill="#fff"/>
            </g>
          </g>
        </g>
      </g>
    </g>
  </g>
</svg>
