<svg xmlns="http://www.w3.org/2000/svg" xmlns:xlink="http://www.w3.org/1999/xlink" width="128" height="128" viewBox="0 0 128 128">
  <defs>
    <clipPath id="clip-icon_128px">
      <rect width="128" height="128"/>
    </clipPath>
  </defs>
  <g id="icon_128px" clip-path="url(#clip-icon_128px)">
    <g id="Group_255" data-name="Group 255" transform="translate(-20)">
      <g id="instagram" transform="translate(6.57 6.539)">
        <g id="visibility-24px" transform="translate(-7.57 -7.539)">
          <g id="Group_245" data-name="Group 245">
            <rect id="Rectangle_215" data-name="Rectangle 215" width="24" height="24" fill="none"/>
          </g>
        </g>
      </g>
    </g>
    <g id="Group_258" data-name="Group 258">
      <g id="Group_257" data-name="Group 257" transform="translate(-1 -1)">
        <g id="Group_253" data-name="Group 253">
          <g id="instagram-2" data-name="instagram">
            <g id="visibility-24px-2" data-name="visibility-24px">
              <g id="Group_245-2" data-name="Group 245">
                <rect id="Rectangle_215-2" data-name="Rectangle 215" width="40" height="40" fill="none"/>
              </g>
            </g>
          </g>
        </g>
        <g id="Group_254" data-name="Group 254" transform="translate(1 1)">
          <rect id="Rectangle_217" data-name="Rectangle 217" width="128" height="128"/>
          <g id="Group_254-2" data-name="Group 254" transform="translate(13.656 39.012)">
            <path id="Path_63" data-name="Path 63" d="M30.423,3.156c-11.178,0-21.792-.976-25.846,9.233C2.9,16.605,3.145,22.081,3.145,29.921c0,6.88-.225,13.346,1.431,17.529,4.045,10.214,14.745,9.236,25.84,9.236,10.7,0,21.739,1.093,25.843-9.236,1.678-4.258,1.431-9.653,1.431-17.529,0-10.456.588-17.206-4.581-22.274C47.877,2.513,40.8,3.156,30.41,3.156ZM27.978,7.98C51.294,7.943,54.261,5.4,52.624,40.728c-.582,12.495-10.279,11.123-22.2,11.123-21.733,0-22.358-.61-22.358-21.942C8.068,8.33,9.791,7.992,27.978,7.974Zm17,4.443a3.211,3.211,0,1,0,3.272,3.21A3.242,3.242,0,0,0,44.983,12.422ZM30.423,16.176a13.746,13.746,0,1,0,14,13.745A13.878,13.878,0,0,0,30.423,16.176Zm0,4.823c12.021,0,12.036,17.843,0,17.843C18.4,38.843,18.386,21,30.423,21Z" transform="translate(47.212 -3.13)" fill="#fff"/>
            <path id="Path_64" data-name="Path 64" d="M8,9.92V52.35a4.087,4.087,0,0,0,6.307,3.44L47.645,34.575a4.1,4.1,0,0,0,0-6.921L14.307,6.48A4.087,4.087,0,0,0,8,9.92Z" transform="translate(-8 -5.177)" fill="#fff"/>
          </g>
        </g>
      </g>
    </g>
  </g>
</svg>
