<svg xmlns="http://www.w3.org/2000/svg" xmlns:xlink="http://www.w3.org/1999/xlink" width="32" height="32" viewBox="0 0 32 32">
  <defs>
    <clipPath id="clip-icon_32px">
      <rect width="32" height="32"/>
    </clipPath>
  </defs>
  <g id="icon_32px" clip-path="url(#clip-icon_32px)">
    <g id="Group_255" data-name="Group 255" transform="translate(-20)">
      <g id="instagram" transform="translate(6.57 6.539)">
        <g id="visibility-24px" transform="translate(-7.57 -7.539)">
          <g id="Group_245" data-name="Group 245">
            <rect id="Rectangle_215" data-name="Rectangle 215" width="24" height="24" fill="none"/>
          </g>
        </g>
      </g>
    </g>
    <g id="Group_258" data-name="Group 258">
      <g id="Group_257" data-name="Group 257" transform="translate(-1 -1)">
        <g id="Group_253" data-name="Group 253">
          <g id="instagram-2" data-name="instagram">
            <g id="visibility-24px-2" data-name="visibility-24px">
              <g id="Group_245-2" data-name="Group 245">
                <rect id="Rectangle_215-2" data-name="Rectangle 215" width="40" height="40" fill="none"/>
              </g>
            </g>
          </g>
        </g>
        <g id="Group_254" data-name="Group 254" transform="translate(1 1)">
          <rect id="Rectangle_217" data-name="Rectangle 217" width="32" height="32"/>
          <g id="Group_254-2" data-name="Group 254" transform="translate(3.414 9.753)">
            <path id="Path_63" data-name="Path 63" d="M9.955,3.137c-2.794,0-5.448-.244-6.461,2.308a12.937,12.937,0,0,0-.358,4.383,13.71,13.71,0,0,0,.358,4.382c1.011,2.554,3.686,2.309,6.46,2.309,2.676,0,5.435.273,6.461-2.309a12.917,12.917,0,0,0,.358-4.382c0-2.614.147-4.3-1.145-5.568C14.319,2.976,12.55,3.137,9.952,3.137ZM9.344,4.343c5.829-.009,6.571-.645,6.161,8.187-.145,3.124-2.57,2.781-5.55,2.781-5.433,0-5.59-.153-5.59-5.485,0-5.395.431-5.479,4.978-5.484ZM13.6,5.453a.8.8,0,1,0,.818.8A.811.811,0,0,0,13.6,5.453Zm-3.64.939a3.436,3.436,0,1,0,3.5,3.436A3.47,3.47,0,0,0,9.955,6.392Zm0,1.206a2.231,2.231,0,1,1,0,4.461A2.231,2.231,0,1,1,9.955,7.6Z" transform="translate(9.453 -3.13)" fill="#fff"/>
            <path id="Path_64" data-name="Path 64" d="M8,6.844V17.451a1.022,1.022,0,0,0,1.577.86l8.334-5.3a1.024,1.024,0,0,0,0-1.73L9.577,5.984A1.022,1.022,0,0,0,8,6.844Z" transform="translate(-8 -5.658)" fill="#fff"/>
          </g>
        </g>
      </g>
    </g>
  </g>
</svg>
