<svg xmlns="http://www.w3.org/2000/svg" xmlns:xlink="http://www.w3.org/1999/xlink" width="16" height="16" viewBox="0 0 16 16">
  <defs>
    <clipPath id="clip-icon_16px">
      <rect width="16" height="16"/>
    </clipPath>
  </defs>
  <g id="icon_16px" clip-path="url(#clip-icon_16px)">
    <g id="Group_256" data-name="Group 256">
      <rect id="Rectangle_217" data-name="Rectangle 217" width="16" height="16"/>
      <g id="Group_254" data-name="Group 254">
        <path id="Path_63" data-name="Path 63" d="M6.544,3.134c-1.4,0-2.724-.122-3.231,1.154a6.469,6.469,0,0,0-.179,2.192A6.855,6.855,0,0,0,3.313,8.67c.506,1.277,1.843,1.154,3.23,1.154,1.338,0,2.717.137,3.23-1.154a6.458,6.458,0,0,0,.179-2.191c0-1.307.073-2.151-.573-2.784s-1.539-.561-2.837-.561Zm-.306.6c2.914,0,3.285-.322,3.081,4.094-.073,1.562-1.285,1.39-2.775,1.39-2.717,0-2.795-.076-2.795-2.743,0-2.7.215-2.74,2.489-2.742Zm2.126.555a.4.4,0,1,0,.409.4A.405.405,0,0,0,8.364,4.292Zm-1.82.469a1.718,1.718,0,1,0,1.75,1.718A1.735,1.735,0,0,0,6.544,4.761Zm0,.6a1.115,1.115,0,1,1,0,2.23A1.115,1.115,0,1,1,6.544,5.364Z" transform="translate(4.867 1.746)" fill="#fff"/>
        <path id="Path_64" data-name="Path 64" d="M8,6.331v5.3a.511.511,0,0,0,.788.43l4.167-2.652a.512.512,0,0,0,0-.865L8.788,5.9A.511.511,0,0,0,8,6.331Z" transform="translate(-6.293 -0.862)" fill="#fff"/>
      </g>
    </g>
  </g>
</svg>
